<svg xmlns="http://www.w3.org/2000/svg" width="92" height="133" viewBox="0 0 92 133" fill="none">
  <path d="M57.8838 1.94067C52.9752 1.94067 46.4031 1.11228 42.1998 4.14805C39.0661 6.41127 35.9093 8.23421 32.7603 10.5959C29.3975 13.1181 26.1408 15.7637 22.8851 18.4089C19.8389 20.884 18.0898 23.7609 16.0596 26.919C14.7111 29.0168 13.4456 31.2729 13.4456 33.8316C13.4456 37.5732 11.8186 41.0523 10.5702 44.52C7.99159 51.6828 4.76747 58.6515 3.10575 66.1292C2.24622 69.9971 2.46677 73.8777 2.46677 77.8342C2.46677 82.2453 2.94425 86.5335 3.48333 90.8461C4.02879 95.2098 3.41689 99.9014 3.51238 104.294C3.58623 107.691 4.91266 114.175 7.4334 116.696C9.19572 118.458 11.0283 122.141 13.3294 123.115C17.7884 125.001 21.2742 130.133 26.2833 131.044C29.7819 131.68 33.9254 131.073 37.4945 131.073C42.2966 131.073 47.0986 131.073 51.9006 131.073C56.7801 131.073 61.6596 131.073 66.5391 131.073C69.6782 131.073 74.7573 130.697 77.1113 128.343C84.1499 121.304 86.3542 113.758 87.1898 104.149C88.5589 88.4045 90.2976 72.6959 90.2976 56.8349C90.2976 47.6084 90.2976 38.3819 90.2976 29.1554C90.2976 22.9472 89.6508 10.5226 82.4555 7.95289C77.1224 6.04819 70.9351 6.98606 65.7259 4.67086C62.2912 3.14432 57.2315 4.46835 54.2242 2.46347" stroke="black" stroke-width="3" stroke-linecap="round"/>
  <path d="M42.4268 48.5958C42.4268 47.6316 43.723 46.7754 43.723 45.8112C44.0967 45.0638 45.0498 45.1448 45.7154 45.4872C46.4232 45.8512 46.7618 46.5642 47.1797 47.2155C47.6585 47.9619 47.7198 48.5213 47.7198 49.3759C47.7198 49.9951 47.7652 50.0366 47.2877 50.3721C46.3563 51.0266 44.9837 51.3484 43.915 50.8642C42.7609 50.3413 42.4268 49.7811 42.4268 48.5958Z" fill="black" stroke="black" stroke-width="3" stroke-linecap="round"/>
  <path d="M52.9042 47.3248C52.9175 46.6192 53.3755 46.0275 53.5183 45.3759C54.3244 44.5725 56.1217 44.554 57.1111 44.9003C58.694 45.4543 58.9695 47.3637 58.3053 48.7291C57.5434 50.2952 54.5648 50.5937 53.3423 49.3712C52.7837 48.8126 52.8905 48.0545 52.9042 47.3248Z" fill="black"/>
  <path d="M53.5524 45.1644C53.4786 45.9021 52.919 46.5437 52.9042 47.3248C52.8905 48.0545 52.7837 48.8126 53.3423 49.3712C54.5648 50.5937 57.5434 50.2952 58.3053 48.7291C58.9695 47.3637 58.694 45.4543 57.1111 44.9003C56.0381 44.5248 54.0151 44.5782 53.3363 45.5965" stroke="black" stroke-width="3" stroke-linecap="round"/>
  <path d="M30.1289 111.019H64.9216" stroke="black" stroke-width="3" stroke-linecap="round"/>
</svg>