<svg width="25" height="25" viewBox="0 0 25 25" fill="none" xmlns="http://www.w3.org/2000/svg">
<circle cx="12.6938" cy="12.7021" r="11.5" fill="#FFC022" stroke="#FFC022"/>
<path d="M13.8249 8.51094C13.191 8.87258 12.6664 9.57967 12.1784 10.1325C11.5814 10.8089 10.9723 11.4806 10.4373 12.2174C9.77849 13.1248 9.21643 14.1221 8.52282 14.9973C8.25846 15.3309 7.96397 15.5748 7.67196 15.8639C7.6188 15.9165 7.36903 16.3428 7.31743 16.2929C7.27758 16.2543 7.82271 15.5022 7.86892 15.4435C9.14761 13.8188 10.536 12.3502 12.0523 10.9991C12.4136 10.6772 12.6843 10.3148 12.9741 9.91804C13.1538 9.67198 13.283 9.31133 13.5413 9.14585C13.6499 9.07629 13.7459 8.65267 13.754 8.51094C13.7556 8.48466 13.9354 8.90819 13.9825 9.00857C14.6611 10.4545 15.561 11.768 16.2357 13.2213C16.6461 14.1053 17.1057 14.9616 17.512 15.8467C17.612 16.0645 17.6331 16.3171 17.7247 16.5417C17.7589 16.6255 17.9371 16.9962 17.7799 16.8678C17.6122 16.7308 17.2855 16.6749 17.0945 16.5846C16.2228 16.1725 15.3727 15.6973 14.534 15.2118C12.8265 14.2235 11.1866 13.0483 9.44459 12.1402C8.73705 11.7714 8.01381 11.3729 7.35682 10.9047C6.84245 10.5382 6.4015 10.0822 5.89933 9.70354C5.81469 9.63973 6.5519 9.75456 6.65565 9.7636C8.34712 9.91097 10.0334 10.1022 11.7214 10.287C13.6351 10.4965 15.517 11.0592 17.4411 11.0592C17.9786 11.0592 18.5883 11.0852 19.1113 11.2136C19.3783 11.2791 19.7454 11.3419 19.2531 11.4281C16.5407 11.9028 13.8167 12.7362 11.3275 14.0106C10.5693 14.3989 9.81476 14.8034 9.0743 15.229C8.90663 15.3254 8.79096 15.5704 8.63312 15.6322C8.25747 15.7795 7.94413 16.1026 7.5853 16.2328" stroke="#1A0C6D" stroke-linecap="round"/>
</svg>
