<svg width="52" height="98" viewBox="0 0 52 98" fill="none" xmlns="http://www.w3.org/2000/svg">
<g id="Group 7462">
<path id="Vector 3214" d="M15.2241 1.51367C15.2241 10.5976 9.98961 18.3602 5.72256 26.0409C4.15274 28.8665 4.1758 32.3247 4.1758 35.5424C4.1758 38.9302 6.2257 41.2595 7.61304 44.381C9.75707 49.2051 11.6886 56.2577 11.6886 61.8373C11.6886 64.8651 11.3073 67.0648 9.47898 69.3501C7.4937 71.8317 6.82739 75.0363 6.82739 78.1888C6.82739 85.7239 18.0331 87.2483 23.6208 87.2483C30.1722 87.2483 37.0346 87.6903 43.7287 87.6903C44.6104 87.6903 49.6947 87.3967 49.6947 86.8064C49.6947 85.022 46.4075 83.0144 45.2754 81.9452C44.8048 81.5007 44.2374 81.0264 43.7287 80.6194C43.3174 80.2904 42.9962 79.1176 42.6238 79.49C42.0481 80.0658 45.4341 81.8822 45.8155 82.1416C47.4657 83.2637 48.2331 84.427 49.351 85.8243C50.5689 87.3467 50.5353 87.8048 49.2528 89.0161C47.8798 90.3128 46.6536 91.7593 45.8155 93.4354C45.2654 94.5357 44.5394 96.455 43.5077 96.9708" stroke="black" stroke-width="2" stroke-linecap="round"/>
<path id="Vector 3215" d="M1.18606 1.51367C1.18606 10.5976 6.42055 18.3602 10.6876 26.0409C12.2574 28.8665 12.2344 32.3247 12.2344 35.5424C12.2344 38.9302 10.1845 41.2595 8.79711 44.381C6.65309 49.2051 4.72151 56.2577 4.72151 61.8373C4.72151 64.8651 3.75676 68.8008 5.58503 71.0861C7.57031 73.5677 3.48784 84.1067 14.7119 86.0243" stroke="black" stroke-width="2" stroke-linecap="round"/>
</g>
</svg>
