<svg width="179" height="208" viewBox="0 0 179 208" fill="none" xmlns="http://www.w3.org/2000/svg">
<path d="M2.74226 10.3848C2.74226 27.2095 1.89653 44.2633 2.91029 61.0466C3.78193 75.4771 4.57174 90.598 6.69102 104.903C8.37962 116.301 10.3037 127.464 10.3037 138.93" stroke="black" stroke-width="2" stroke-linecap="round"/>
<path d="M9.01562 162.636C20.9707 162.636 32.6978 161.152 44.6282 161.152C57.4333 161.152 70.2385 161.152 83.0436 161.152C105.617 161.152 128.191 161.152 150.765 161.152C157.305 161.152 163.845 161.152 170.385 161.152C171.523 161.152 176.612 160.539 176.691 161.894C176.829 164.225 176.691 166.607 176.691 168.942C176.691 174.742 177.433 180.242 177.433 186.007C177.433 190.882 179.291 196.765 172.982 196.765C163.831 196.765 154.681 196.765 145.53 196.765C135 196.765 124.725 198.249 114.205 198.249C90.3378 198.249 65.7753 199.65 42.3612 196.724C35.8462 195.909 29.3354 196.023 22.7413 196.023C20.5197 196.023 18.296 195.39 16.4349 195.281C13.0169 195.08 12.7253 194.673 12.7253 191.2C12.7253 186.45 13.0325 181.639 12.0246 177.104C11.0906 172.901 9.75755 168.32 9.75755 164.12" stroke="black" stroke-width="2" stroke-linecap="round"/>
<path d="M10.3036 139.686C61.2189 139.686 112.198 140.442 163.045 140.442C165.13 140.442 172.824 139.247 172.875 136.913C173.294 117.649 172.119 98.31 172.119 79.0259C172.119 65.5693 172.119 52.1127 172.119 38.6561C172.119 31.5733 172.667 24.1876 171.741 17.1479C171.11 12.3491 170.607 7.65205 170.607 2.82308C170.607 1.11571 166.899 2.06694 164.852 2.06694C133.438 2.06694 101.951 1.45365 70.7113 5.25956C56.4554 6.99631 42.0805 6.77396 27.779 8.07411C24.6543 8.35817 21.3845 8.11611 18.2431 8.11611C15.5248 8.11611 5.74586 11.8552 4.25439 8.87226" stroke="black" stroke-width="2" stroke-linecap="round"/>
<path d="M6.93115 63.4294C6.93115 57.4012 8.56862 52.5934 12.0682 47.7477C15.8687 42.4855 19.553 35.6666 24.1149 31.1048C25.7706 29.449 27.5739 25.7433 29.9429 25.0664C33.9738 23.9147 40.6143 27.4028 43.7019 29.6327C49.5314 33.8429 50.2549 40.3183 53.9761 46.0053C57.0511 50.7048 59.8599 57.0973 64.3704 60.6055C65.2715 61.3063 87.2647 31.3051 89.9357 28.0405C91.4638 26.1729 93.7903 24.4249 94.9526 22.3327C95.1743 21.9337 96.2038 20.3668 96.695 20.9808C98.9668 23.8205 103.975 25.3984 106.879 27.68C113.338 32.7547 119.955 37.1016 125.895 42.881C128.933 45.8362 133.122 48.318 135.208 52.0737C135.509 52.6147 139.57 57.469 139.955 57.1808C142.815 55.0358 144.406 51.269 146.714 48.6189C149.396 45.5402 152.061 42.4008 154.825 39.3962C156.204 37.8978 157.777 36.9679 158.46 35.1904C158.985 33.8256 161.071 31.5538 162.125 30.4438C164.454 27.9925 166.736 23.2719 169.696 21.7919" stroke="#FFC022" stroke-width="2" stroke-linecap="round"/>
<path d="M1.52344 65.0518C20.8326 65.0518 40.1024 64.7752 59.3833 64.511C69.0361 64.3788 78.657 63.5396 88.3433 63.4296C98.3728 63.3156 108.28 60.8197 118.325 60.7258C127.281 60.6421 135.981 59.0281 144.821 58.5628C148.281 58.3807 151.696 57.1195 155.095 56.9406C159.891 56.6882 165.269 54.5302 169.696 57.4813" stroke="#FFC022" stroke-width="2" stroke-linecap="round"/>
<path d="M46.4058 66.1338C46.4058 73.1527 47.562 78.2875 55.0577 80.3134C62.4413 82.3089 69.7326 84.4757 77.2283 86.1414C82.2528 87.258 92.0004 89.9621 94.9528 94.7933C95.795 96.1716 96.9226 97.3038 97.266 98.8489C97.5988 100.347 98.4932 102.495 99.1586 104.016C100.576 107.256 102.128 108.735 104.806 110.595C107.87 112.723 111.797 115.469 115.381 116.664C119.598 118.069 125.825 118.619 129.26 121.71C134.504 126.43 137.251 133.616 137.251 140.757" stroke="#FFC022" stroke-width="2" stroke-linecap="round"/>
<path d="M89.665 65.5928C89.665 70.5194 95.1409 76.6497 98.4371 80.0728C102.35 84.1366 105.484 88.8943 111.295 90.3469C119.34 92.3581 127.429 93.6018 135.358 95.3639C138.449 96.0506 139.33 99.5094 140.766 102.093C142.651 105.486 143.43 109.132 147.795 110.475C152.25 111.845 156.925 111.556 161.554 111.556C165.381 111.556 169.215 112.097 172.94 112.097" stroke="#FFC022" stroke-width="2" stroke-linecap="round"/>
<path d="M52.2827 41.0489C52.2827 32.8483 62.4752 31.459 68.7524 31.459C70.3695 31.459 73.8708 32.7897 74.8214 34.2155C75.4307 35.1296 77.0486 36.595 77.9254 37.2963C78.7253 37.9363 78.5495 38.9616 78.9677 39.7981" stroke="#FFC022" stroke-width="2" stroke-linecap="round"/>
<path d="M52.2825 31.4591C52.2825 28.115 51.238 24.9898 50.1978 21.8691" stroke="#FFC022" stroke-width="2" stroke-linecap="round"/>
<path d="M58.9541 16.4492V26.0392" stroke="#FFC022" stroke-width="2" stroke-linecap="round"/>
<path d="M65.625 23.1204C65.625 20.0397 65.9314 18.0317 66.8759 15.1982" stroke="#FFC022" stroke-width="2" stroke-linecap="round"/>
<path d="M72.2964 24.7878C72.2964 21.8453 75.7168 19.1772 77.5083 17.0742C79.1852 15.1057 81.294 13.5846 82.7202 11.4453" stroke="#FFC022" stroke-width="2" stroke-linecap="round"/>
<path d="M78.5508 32.2931C79.0679 29.8111 82.3198 23.9458 84.8051 22.7031" stroke="#FFC022" stroke-width="2" stroke-linecap="round"/>
<path d="M23.93 176.142C23.93 183.724 23.93 191.306 23.93 198.889C23.93 201.205 24.4863 203.409 24.7407 205.699C24.9373 207.468 24.4912 202.912 24.3238 202.41C22.5407 197.061 21.8452 190.712 21.8452 185.083C21.8452 182.568 22.0545 180.725 22.7023 178.458C23.043 177.266 25.8803 176.976 26.8487 176.976C29.9738 176.976 30.9951 178.904 32.1764 181.562C33.6452 184.867 24.469 186.123 23.0961 184.064" stroke="#FFC022" stroke-width="2" stroke-linecap="round"/>
<path d="M36.4386 181.146C37.8922 181.146 39.035 181.598 38.9404 179.895C38.8785 178.781 37.3558 178.072 36.4386 177.81C35.7978 177.627 34.3539 176.814 34.3539 178.019C34.3539 179.147 34.1665 180.474 34.4465 181.563C35.2773 184.794 38.6538 187.396 41.8359 187.794C45.0245 188.193 43.0968 182.502 42.4845 180.937C42.0036 179.709 41.7211 178.877 40.8398 177.996C39.8811 177.037 39.0052 177.534 40.7008 178.227C44.8643 179.93 47.466 180.646 51.1942 178.065C52.1946 177.372 50.4755 177.927 50.1981 178.413C49.7318 179.229 49.7444 180.083 49.4569 181.053C48.8483 183.107 49.1054 186.624 49.7812 188.651" stroke="#FFC022" stroke-width="2" stroke-linecap="round"/>
<path d="M58.9542 171.556C58.9542 171.207 59.1252 170.245 58.8616 169.981C58.6059 169.725 56.995 169.762 56.8926 170.12C56.3444 172.038 56.4525 174.032 56.4525 176.189C56.4525 181.807 58.1918 187.818 59.8808 193.145C60.5746 195.333 60.893 197.949 61.8729 199.909" stroke="#FFC022" stroke-width="2" stroke-linecap="round"/>
<path d="M52.2827 183.23C56.0201 183.23 59.9841 183.165 63.5405 181.979" stroke="#FFC022" stroke-width="2" stroke-linecap="round"/>
<path d="M67.293 183.23C69.4805 183.23 66.9089 180.084 66.0422 179.663C63.3572 178.359 62.7065 180.331 62.7065 182.489C62.7065 188.749 67.5746 190.548 72.2965 187.4" stroke="#FFC022" stroke-width="2" stroke-linecap="round"/>
<path d="M78.9679 179.895C77.4811 180.08 76.8019 183.202 76.5588 184.296C76.1486 186.142 76.3794 188.489 77.717 189.901C80.2742 192.601 82.3022 190.738 83.5544 188.234" stroke="#FFC022" stroke-width="2" stroke-linecap="round"/>
<path d="M83.971 166.552C83.971 173.55 83.5961 181.831 86.797 188.233C87.148 188.935 87.5676 189.913 88.5575 189.392C89.3977 188.949 89.8868 188.159 90.8276 187.816C91.0198 187.747 92.0239 187.399 91.4762 187.399" stroke="#FFC022" stroke-width="2" stroke-linecap="round"/>
<path d="M79.8018 176.143C83.6929 176.143 87.6578 175.726 91.4765 175.726" stroke="#FFC022" stroke-width="2" stroke-linecap="round"/>
<path d="M107.321 174.475C107.321 175.751 106.653 180.326 108.363 180.706C110.471 181.174 114.512 178.789 115.567 182.072C116.299 184.35 116.281 189.485 112.949 189.485C110.26 189.485 108.571 189.361 108.571 186.149" stroke="#FFC022" stroke-width="2" stroke-linecap="round"/>
<path d="M117.744 177.393C117.744 180.134 116.669 184.657 118.787 186.775C120.315 188.304 122.113 187.957 123.582 186.566C126.205 184.081 123.582 175.726 123.582 175.726" stroke="#FFC022" stroke-width="2" stroke-linecap="round"/>
<path d="M128.168 176.142C128.168 181.323 128.168 196.866 128.168 191.685C128.168 188.809 127.334 186.061 127.334 183.23C127.334 181.624 126.527 180.241 127.334 178.829C127.871 177.889 128.153 176.89 129.234 176.582C130.031 176.354 133.043 176.205 133.496 176.976C135.799 180.89 136.507 184.518 136.507 189.067" stroke="#FFC022" stroke-width="2" stroke-linecap="round"/>
<path d="M141.511 177.393C140.655 177.393 137.919 176.893 137.434 177.81C137.182 178.286 136.53 180.149 137.017 180.636C138.441 182.06 143.375 180.783 144.429 182.628C145.355 184.248 145.069 188.233 142.553 188.233C140.494 188.233 135.91 189.124 134.839 186.983" stroke="#FFC022" stroke-width="2" stroke-linecap="round"/>
<path d="M146.097 179.895C148.348 179.895 150.524 180.151 152.583 179.061C153.341 178.659 154.166 177.055 153.51 176.235C151.588 173.832 147.529 176.711 146.097 178.227C144.697 179.709 144.353 186.755 146.097 187.724C147.885 188.717 155.078 189.868 156.104 187.817" stroke="#FFC022" stroke-width="2" stroke-linecap="round"/>
<path d="M158.606 167.803C158.606 170.104 158.606 172.405 158.606 174.706C158.606 178.897 159.883 182.877 160.274 186.983C160.681 191.255 163.817 189.554 166.528 188.65" stroke="#FFC022" stroke-width="2" stroke-linecap="round"/>
<path d="M152.769 176.559C157.819 176.559 161.772 176.477 166.528 174.892" stroke="#FFC022" stroke-width="2" stroke-linecap="round"/>
</svg>
