<svg width="171" height="210" viewBox="0 0 171 210" fill="none" xmlns="http://www.w3.org/2000/svg">
<path d="M1.49421 47.0273C1.49421 63.852 0.648481 80.9058 1.66224 97.6892C2.53388 112.12 3.32369 127.241 5.44298 141.546C7.13157 152.944 9.05568 164.106 9.05568 175.572" stroke="black" stroke-width="2" stroke-linecap="round"/>
<path d="M7.21275 177.351C58.1281 177.351 109.107 178.107 159.954 178.107C162.039 178.107 169.734 176.912 169.784 174.578C170.203 155.314 169.028 135.975 169.028 116.691C169.028 103.234 169.028 89.7777 169.028 76.3211C169.028 69.2383 169.576 61.8526 168.65 54.8129C168.019 50.0141 167.516 45.3171 167.516 40.4881C167.516 38.7808 163.808 39.732 161.761 39.732C130.347 39.732 98.8606 39.1187 67.6205 42.9246C53.3646 44.6614 38.9897 44.439 24.6881 45.7391C21.5635 46.0232 18.2937 45.7812 15.1523 45.7812C12.434 45.7812 2.65504 49.5202 1.16357 46.5373" stroke="black" stroke-width="2" stroke-linecap="round"/>
<path d="M82.1661 66.0058C77.3593 66.0058 70.6733 64.6465 66.6795 67.7844C64.5181 69.4827 64.3799 71.231 64.3799 73.8389C64.3799 78.368 64.6947 82.5149 66.446 86.7384C68.5852 91.8978 75.8799 91.8766 80.5312 91.8766C85.0771 91.8766 88.5868 91.0037 92.4964 88.8045C94.3646 87.7537 94.4547 85.3043 94.4547 83.4686C94.4547 79.8952 93.5414 74.9891 90.5741 72.5454C89.0173 71.2633 87.4853 69.4999 85.7233 68.521C84.5788 67.8852 83.9544 66.5766 82.8128 66.0058" stroke="#FFC022" stroke-width="2" stroke-linecap="round"/>
<path d="M76.3451 93.1695C76.2541 94.079 75.4541 94.9189 74.9796 95.6488C72.7418 99.0916 70.4306 102.466 68.2425 105.943C62.9291 114.388 57.7892 122.904 52.3786 131.293C49.1963 136.227 45.8569 141.022 43.6831 146.456C43.137 147.821 41.9591 148.623 44.2221 148.397C53.7316 147.446 63.4244 148.68 72.9495 148.774C85.5608 148.898 98.1219 148.145 110.714 148.145C114.025 148.145 117.337 148.145 120.649 148.145C122.187 148.145 122.23 148.418 121.152 147.031C115.573 139.858 109.387 133.027 103.384 126.209C99.7919 122.129 95.9539 118.336 92.8377 113.884C90.841 111.032 88.2677 107.717 87.0886 104.416C86.2405 102.041 84.8079 99.5718 84.4477 97.0501C84.1873 95.2275 82.7403 93.5988 82.166 91.876" stroke="#FFC022" stroke-width="2" stroke-linecap="round"/>
<path d="M55.0015 76.6771C60.7876 76.6771 66.2498 78.8642 71.8175 80.2163C77.4627 81.5873 84.5334 83.5594 90.4122 82.4621C93.7891 81.8317 97.1729 80.3492 99.2334 77.5394C100.058 76.4154 100.782 74.5071 101.892 73.7666" stroke="#FFC022" stroke-width="2" stroke-linecap="round"/>
<path d="M35.9224 9.04883V24.8947" stroke="#FFC022" stroke-width="2" stroke-linecap="round"/>
<path d="M32.0414 14.2225C32.0414 11.8607 31.9758 11.6543 33.6583 10.0185C35.5382 8.19085 37.4271 6.34018 40.2697 7.28771C43.5248 8.37273 42.0386 13.827 40.6111 15.8035C39.9822 16.6743 36.4434 19.5878 36.5688 17.4564C36.6293 16.4274 38.6876 15.8395 39.4792 15.8395C41.7378 15.8395 42.6343 16.9916 43.1802 19.253C43.5658 20.8505 44.3312 25.9999 42.0304 26.5112C39.713 27.0262 34.9518 27.687 34.9518 24.2475" stroke="#FFC022" stroke-width="2" stroke-linecap="round"/>
<path d="M47.2408 13.8994C47.2408 16.0622 46.0551 30.0687 48.9296 30.0687C50.278 30.0687 52.2799 29.3434 53.457 28.7751C54.8033 28.1252 54.4621 26.396 54.6787 25.1101C55.2276 21.8512 55.0021 18.4906 55.0021 15.193" stroke="#FFC022" stroke-width="2" stroke-linecap="round"/>
<path d="M59.8525 12.9297C59.8525 17.0798 59.8525 21.2299 59.8525 25.38C59.8525 25.883 60.135 26.5416 60.4274 26.9071C60.5812 27.0993 60.4993 28.5179 60.4993 28.1288" stroke="#FFC022" stroke-width="2" stroke-linecap="round"/>
<path d="M67.9374 13.2529C67.9374 18.2076 67.8679 23.1463 68.2607 28.0568C68.3377 29.0182 77.2747 28.5337 77.6389 27.8053" stroke="#FFC022" stroke-width="2" stroke-linecap="round"/>
<path d="M81.5195 13.2532C81.5195 15.7265 81.5195 18.1998 81.5195 20.6731C81.5195 22.1778 82.0854 23.4385 82.1663 24.895C82.201 25.5191 82.4897 26.0051 82.4897 26.6377C82.4897 27.1767 82.4897 25.5598 82.4897 25.0208C82.4897 22.3379 82.4897 19.655 82.4897 16.9721C82.4897 15.6974 84.125 11.688 85.472 11.6362C88.2707 11.5286 89.6819 12.172 91.2211 14.5467C92.361 16.3054 93.1661 18.1223 93.6285 20.17C93.7911 20.8899 94.4615 22.5202 93.898 23.1703C92.5603 24.7138 90.3088 26.8353 88.113 26.8353C85.8763 26.8353 85.798 25.8071 84.43 24.895" stroke="#FFC022" stroke-width="2" stroke-linecap="round"/>
<path d="M115.475 5.49195C115.475 10.4984 115.475 15.5049 115.475 20.5114C115.475 26.4761 115.475 8.58208 115.475 2.61742C115.475 1.88331 115.808 1.61133 116.517 1.61133C118.945 1.61133 119.715 2.27368 121.224 4.27027C124.939 9.18342 126.794 16.4945 126.794 22.6314" stroke="#FFC022" stroke-width="2" stroke-linecap="round"/>
<path d="M116.122 13.8994H125.176" stroke="#FFC022" stroke-width="2" stroke-linecap="round"/>
<path d="M54.0316 186.773C54.0316 188.277 53.1939 206.502 54.6066 206.679C54.8636 206.711 54.0316 193.104 54.0316 192.145C54.0316 191.263 53.6556 189.981 53.4567 189.036C52.9158 186.467 55.4399 189.713 56.1337 190.33C58.3551 192.305 60.4669 194.429 62.6193 196.474C63.3639 197.182 63.296 194.14 63.4098 193.564C63.7665 191.76 64.3256 190.009 64.7213 188.228C64.8235 187.768 65.1802 186.146 65.422 185.874C65.5646 185.714 65.8257 188.274 65.8532 188.408C66.409 191.107 66.9464 193.841 67.6138 196.51C68.6552 200.676 69.5541 203.944 69.5541 208.116" stroke="#FFC022" stroke-width="2" stroke-linecap="round"/>
<path d="M72.1412 194.534C72.1412 196.803 71.8449 199.281 72.1771 201.523C72.4219 203.175 73.2738 204.463 74.0096 205.853C74.45 206.684 75.842 207.793 76.8303 207.793C78.4608 207.793 79.6308 206.499 81.196 206.499" stroke="#FFC022" stroke-width="2" stroke-linecap="round"/>
<path d="M72.4644 201.648H78.6087" stroke="#FFC022" stroke-width="2" stroke-linecap="round"/>
<path d="M72.4644 193.564H80.8724" stroke="#FFC022" stroke-width="2" stroke-linecap="round"/>
<path d="M84.1064 194.534C84.1064 197.714 84.1064 200.894 84.1064 204.074C84.1064 204.927 84.4297 209.347 84.4297 206.428C84.4297 202.892 84.1551 198.951 83.2979 195.523C83.1084 194.765 83.1362 194.016 83.1362 193.241C83.1362 192.903 84.0792 193.749 84.304 193.906C86.6647 195.548 88.8046 197.415 90.8974 199.385C91.1438 199.617 92.6104 194.431 92.9815 193.582C93.0136 193.509 93.4424 192.6 93.5025 192.81C93.9556 194.395 95.0648 195.873 95.7482 197.373C97.1568 200.464 98.8716 203.258 99.9522 206.5" stroke="#FFC022" stroke-width="2" stroke-linecap="round"/>
<path d="M101.569 193.564C101.569 196.306 101.169 199.383 101.587 202.098C101.769 203.282 102.866 204.501 103.437 205.53C104.328 207.133 111.37 207.595 112.241 205.853" stroke="#FFC022" stroke-width="2" stroke-linecap="round"/>
<path d="M101.569 199.708C102.864 199.708 107.601 200.579 108.36 199.062" stroke="#FFC022" stroke-width="2" stroke-linecap="round"/>
<path d="M101.893 193.888H109.007" stroke="#FFC022" stroke-width="2" stroke-linecap="round"/>
</svg>
