<svg width="188" height="204" viewBox="0 0 188 204" fill="none" xmlns="http://www.w3.org/2000/svg">
<g id="Group 7452">
<g id="Group 7203">
<path id="Vector 2873" d="M172.423 87.7002C165.455 87.7002 161.674 90.5523 157.572 96.0216C153.034 102.071 149.542 108.898 147.459 116.189C146.071 121.047 143.298 126.036 143.298 131.127C143.298 133.455 144.338 135.031 144.338 137.108C144.338 144.785 136.307 149.214 136.017 156.756C135.92 159.277 136.011 161.756 139.398 161.004C141.083 160.629 144.827 157.431 145.899 156.092C146.644 155.16 147.967 155.312 149.019 155.312C150.71 155.312 151.058 156.269 151.1 158.028C151.2 162.231 151.581 166.908 150.319 170.943C149.26 174.332 146.69 187.656 150.868 189.175C154.425 190.468 156.589 191.718 160.461 191.718C163.967 191.718 167.39 191.092 170.863 190.706C175.09 190.237 177.077 189.664 180.225 186.517C182.114 184.627 182.435 181.896 183.981 179.756C184.92 178.455 185.776 176.975 186.466 175.595" stroke="black" stroke-width="2" stroke-linecap="round"/>
<path id="Vector 2874" d="M145.379 172.474C135.866 172.474 125.372 171.619 117.294 166.233" stroke="#FFC022" stroke-width="2" stroke-linecap="round"/>
<path id="Vector 2875" d="M137.057 179.236C132.297 179.236 128.506 178.61 124.633 181.778C123.786 182.471 120.166 186.133 119.895 185.997" stroke="#FFC022" stroke-width="2" stroke-linecap="round"/>
<path id="Vector 2876" d="M141.646 183.137C140.277 183.289 137.47 186.688 136.518 187.64C133.182 190.977 130.054 194.335 126.44 197.384C124.508 199.015 122.629 201.675 120.376 202.801" stroke="#FFC022" stroke-width="2" stroke-linecap="round"/>
<path id="Vector 2877" d="M148.869 113.708H162.915" stroke="black" stroke-width="2" stroke-linecap="round"/>
<path id="Vector 2878" d="M155.892 113.872C154.693 114.832 153.141 117.889 151.48 118.627C150.521 119.054 147.467 119.069 147.467 117.914" stroke="black" stroke-width="2" stroke-linecap="round"/>
<path id="Vector 2879" d="M82.3143 99.9531C79.1793 99.9531 75.8759 103.793 75.8759 107.162C75.8759 114.818 75.5848 121.557 77.7469 128.788C78.597 131.632 79.2203 137.194 82.0666 138.604C83.5896 139.359 84.8453 139.709 86.524 139.709C88.6852 139.709 88.0781 138.764 89.4955 137.5C90.9468 136.205 89.5933 130.56 90.3485 128.665C91.1 126.78 90.7972 124.343 91.2014 122.316C91.5144 120.745 91.5219 117.85 91.2014 116.242C90.317 111.805 87.3737 99.9531 81.819 99.9531" stroke="black" stroke-width="2" stroke-linecap="round"/>
<path id="Vector 2880" d="M65.1123 132.07C65.6261 137.721 72.5404 143.927 77.2598 146.426C80.1979 147.981 81.9471 148.635 85.2661 148.635C87.0818 148.635 90.295 149.246 91.892 148.358C95.2674 146.483 97.7761 144.856 100.205 141.733C102.795 138.403 102.107 132.838 102.107 128.757" stroke="black" stroke-width="2" stroke-linecap="round"/>
<path id="Vector 2881" d="M88.3029 151.395C88.3029 156.222 89.4072 161.067 89.4072 165.751C89.4072 166.462 89.8569 170.079 89.6526 170.137C87.8629 170.649 86.3349 170.72 84.4378 170.72C83.0575 170.72 79.8499 170.72 83.0574 170.72C84.8059 170.72 86.5544 170.72 88.3029 170.72C91.7999 170.72 95.2969 170.72 98.7939 170.72" stroke="black" stroke-width="2" stroke-linecap="round"/>
<path id="Vector 2882" d="M52.8053 128.527C46.7114 128.527 39.3729 130.158 34.2022 124.724C29.9368 120.241 28.8818 114.357 26.8577 108.202C25.234 103.266 25.8902 96.0177 25.8902 90.6113C25.8902 85.4911 28.8223 80.8621 29.0567 76.1106C29.115 74.9285 26.0284 79.0141 25.4504 79.7952C23.8914 81.9019 21.6101 83.4704 19.997 86.273C19.5967 86.9685 16.8394 93.4098 16.5666 92.9885C15.5918 91.4831 19.6961 87.2144 20.1729 86.5701C23.0109 82.7352 25.5904 79.0514 30.2441 80.4489C34.377 81.69 34.4148 92.0327 37.7645 94.296" stroke="black" stroke-width="2" stroke-linecap="round"/>
<path id="Vector 2883" d="M2.14221 11.142C2.14221 20.2832 3.37817 29.2036 3.72545 38.2331C3.89299 42.5891 4.64721 48.3314 5.9244 52.4823C7.22775 56.7181 6.0799 61.7599 7.85948 65.7639C9.54209 69.5498 13.8549 70.0493 17.9747 68.3147C21.6917 66.7496 28.8825 68.1388 32.8396 68.1388C38.77 68.1388 44.739 67.6634 50.4312 67.3472C53.4903 67.1772 58.7932 68.4154 61.338 66.3796C63.4134 64.7193 62.3055 58.779 62.3055 56.2644C62.3055 51.3225 60.7219 46.5878 59.3149 41.8393C57.81 36.7603 57.1512 31.0117 55.005 26.1828C53.543 22.8934 52.6563 3.43733 48.8479 3.22575C44.8186 3.0019 41.254 1.64251 36.9736 1.64251C33.2009 1.64251 28.1141 0.742718 24.4835 1.81842C19.7502 3.22091 15.4136 3.14295 10.8501 5.4247C7.65969 7.01989 4.33265 8.0677 1.35059 9.55873" stroke="black" stroke-width="2" stroke-linecap="round"/>
<path id="Vector 2884" d="M4.51709 38.0574C4.51709 34.2559 6.76646 26.688 11.6417 26.9747C15.576 27.2062 15.8526 43.879 17.0071 46.7653C18.3986 50.244 17.6229 52.3066 21.9328 52.3066C25.2982 52.3066 24.3076 48.4325 24.3076 45.9737C24.3076 39.3098 24.8474 33.0759 25.8469 26.5789C26.0074 25.5358 28.645 19.1725 30.6406 22.6648C31.999 25.042 33.3768 28.2282 33.7631 30.9328C34.1908 33.9263 34.8394 38.0248 37.3694 39.9925C40.1791 42.1779 39.3485 35.86 39.3485 34.4951C39.3485 28.3015 46.21 29.6678 48.4521 33.7035C50.1443 36.7495 56.7642 46.1835 56.7642 37.2658" stroke="black" stroke-width="2" stroke-linecap="round"/>
</g>
<path id="Vector 2885" d="M147.138 118.419C147.578 116.913 148.084 115.333 148.084 113.74C148.084 113.938 149.538 113.74 151.438 113.708C152.689 113.74 153.284 114.351 154.495 114.046C154.632 114.012 155.322 114.005 155.287 114.046C155.211 114.139 154.581 114.891 154.495 114.982C154.293 115.197 154.167 115.49 154.002 115.739C153.529 116.454 152.817 116.894 152.237 117.493C151.743 118.003 151.194 118.457 150.535 118.665C150.213 118.766 149.861 118.64 149.538 118.735C149.146 118.851 148.696 118.797 148.292 118.861C147.884 118.925 147.441 118.873 147.029 118.873C147.009 118.873 147.121 118.478 147.138 118.419Z" fill="black"/>
</g>
</svg>
