<svg width="186" height="238" viewBox="0 0 186 238" fill="none" xmlns="http://www.w3.org/2000/svg">
<g id="Group 7470">
<path id="Vector 3203" d="M41.1084 154.989C43.7664 156.451 45.6813 159.244 48.624 160.225C51.3832 161.144 50.4259 156.378 50.524 154.82C50.6014 153.591 50.6084 149.894 50.6084 151.126C50.6084 153.385 50.6084 155.644 50.6084 157.902C50.6084 165.038 50.6084 186.445 50.6084 179.309" stroke="#FFC022" stroke-width="3" stroke-linecap="round"/>
<path id="Vector 3204" d="M54.4086 164.489C54.4086 167.798 53.5741 172.429 57.2797 174.158C59.8566 175.36 63.0027 172.719 64.0775 170.569C65.1886 168.347 63.8172 163.586 61.2486 163.053C59.8097 162.755 58.3667 162.589 56.8997 162.589C56.204 162.589 56.4343 163.096 55.9286 163.349" stroke="#FFC022" stroke-width="3" stroke-linecap="round"/>
<path id="Vector 3205" d="M66.1885 159.549C66.1885 161.585 65.2851 166.279 67.3496 167.698C68.4895 168.482 69.8184 168.289 71.1285 168.289C73.6994 168.289 73.4085 160.24 73.4085 158.029" stroke="#FFC022" stroke-width="3" stroke-linecap="round"/>
<path id="Vector 3206" d="M78.7286 154.229C78.7286 159.873 78.7286 165.516 78.7286 171.16C78.7286 171.926 78.6481 172.12 78.3275 171.266C77.4491 168.923 76.8235 166.522 76.1531 164.109C74.3481 157.611 73.9817 148.259 83.4786 149.88C88.6089 150.756 89.0107 155.842 85.9064 159.528C84.0502 161.732 81.4782 164.004 78.8131 165.165C78.3487 165.367 76.4486 166.264 76.4486 165.439C76.4486 163.061 83.4402 164.466 84.4286 164.911C86.7372 165.95 88.8774 168.031 90.4242 170.02C90.6352 170.291 91.2687 171.702 91.2687 171.329" stroke="#FFC022" stroke-width="3" stroke-linecap="round"/>
<path id="Vector 3207" d="M55.9283 194.129C56.1956 195.198 64.5755 194.509 66.1039 194.509C68.2195 194.509 64.9933 194.842 64.5839 194.973C63.5122 195.318 62.3616 196.278 61.2484 196.409C58.7872 196.698 61.2207 203.036 61.4595 204.621C61.4645 204.654 64.6188 218.787 62.5573 218.787C60.5812 218.787 57.8549 215.981 56.8995 214.48C56.2211 213.414 56.7042 211.427 55.5483 210.849" stroke="#FFC022" stroke-width="3" stroke-linecap="round"/>
<path id="Vector 3208" d="M67.7084 204.01C67.7084 207.905 66.7063 212.257 70.1995 214.819C74.1331 217.703 75.4348 216.006 78.3484 212.75C80.0644 210.832 77.7359 205.458 75.4984 204.77C73.8162 204.252 70.3946 205.167 69.2284 204.39" stroke="#FFC022" stroke-width="3" stroke-linecap="round"/>
<path id="Vector 3209" d="M79.1084 198.31C79.1084 203.22 79.9445 207.992 81.1984 212.729C81.646 214.419 82.9084 219.439 82.9084 217.69" stroke="#FFC022" stroke-width="3" stroke-linecap="round"/>
<path id="Vector 3210" d="M85.1887 198.31C85.1887 200.194 86.186 205.721 84.7242 207.345C84.271 207.849 81.3887 209.74 81.3887 208.19C81.3887 206.558 88.8821 209.148 89.5798 210.005C90.8724 211.593 91.7697 213.493 92.4087 215.41" stroke="#FFC022" stroke-width="3" stroke-linecap="round"/>
<path id="Vector 3211" d="M90.8888 197.55C90.8888 202.214 89.8863 207.969 92.8732 211.99C94.4561 214.121 96.704 212.634 98.7843 211.905C100.228 211.4 105.009 209.97 105.709 208.57" stroke="#FFC022" stroke-width="3" stroke-linecap="round"/>
<path id="Vector 3212" d="M91.2686 207.049C94.0702 206.885 96.9156 205.529 99.6286 205.529" stroke="#FFC022" stroke-width="3" stroke-linecap="round"/>
<path id="Vector 3213" d="M91.6484 197.169H106.088" stroke="#FFC022" stroke-width="3" stroke-linecap="round"/>
<g id="Group 7471">
<g id="Group 7453">
<path id="Vector 2886" d="M17.4098 121.838C17.4098 129.802 17.4098 137.766 17.4098 145.73C17.4098 153.048 16.8053 161.669 18.3223 168.875C20.8976 181.108 19.2206 194.183 21.5161 206.578C22.9235 214.178 22.4295 227.624 30.1436 231.963C36.0748 235.3 44.9079 235.964 51.588 236.07C60.8111 236.216 70.2162 236.507 79.3785 235.489C93.3622 233.935 107.678 233.083 121.769 233.083C128.205 233.083 134.668 234.536 139.481 229.723C144.492 224.712 144.334 214.867 144.334 208.279C144.334 203.647 144.998 198.471 144.292 193.886C143.676 189.879 142.589 185.923 142.052 181.899C141.662 178.971 139.965 176.072 139.854 173.188C139.751 170.515 139.854 167.817 139.854 165.142C139.854 161.491 138.526 158.148 138.361 154.523C138.17 150.335 137.52 145.424 136.287 141.416C134.679 136.19 134.374 130.705 131.807 125.571C130.451 122.86 130.721 121.327 128.282 119.972C124.734 118.001 121.018 117.841 117.082 116.985C105.953 114.566 94.255 116.612 83.1115 116.612C75.0303 116.612 66.2716 115.745 58.3075 117.193C48.6568 118.947 37.2527 119.598 27.489 119.598C23.331 119.598 19.4077 121.838 15.1699 121.838" stroke="black" stroke-width="2" stroke-linecap="round"/>
<path id="Vector 2888" d="M150.306 154.689C156.069 154.049 158.917 145.917 160.759 141.416C162.839 136.33 163.745 131.788 163.745 126.318C163.745 116.678 163.335 104.713 157.026 96.8265C155.761 95.2456 152.926 101.712 152.546 102.758C151.798 104.815 152.97 97.9393 153.459 96.6191C156.176 89.2817 162.954 92.3248 168.225 94.96" stroke="black" stroke-width="2" stroke-linecap="round"/>
<path id="Vector 2889" d="M117.455 53.896C117.455 59.6598 116.939 64.7255 122.308 67.7084C124.194 68.7558 130.148 67.1885 130.148 64.7219C130.148 61.5875 130.887 57.9531 128.489 55.5552C126.302 53.369 122.089 53.4455 119.695 54.6427" stroke="black" stroke-width="2" stroke-linecap="round"/>
<path id="Vector 2890" d="M118.949 94.2138C118.949 86.5312 119.587 77.7253 126.042 72.562C133.819 66.3402 138.694 78.7889 140.6 84.5078" stroke="black" stroke-width="2" stroke-linecap="round"/>
<path id="Vector 2891" d="M148.813 41.9506C148.813 49.4554 162.045 42.3038 165.238 40.6233C167.907 39.2189 168.801 33.6619 165.612 32.2447C161.5 30.4172 155.946 31.3142 152.173 32.9913C148.187 34.7625 149.56 41.4337 149.56 44.9371" stroke="black" stroke-width="2" stroke-linecap="round"/>
<path id="Vector 2892" d="M157.026 73.3082C157.026 64.4646 157.539 52.6663 163.745 45.6836C172.93 35.3506 184.65 63.5339 184.65 71.0683" stroke="black" stroke-width="2" stroke-linecap="round"/>
</g>
<path id="Vector 3192" d="M1.83398 76.7997C1.91395 78.559 2.56933 80.1407 3.33979 81.7124C5.38026 85.875 7.86711 89.8966 10.3983 93.7777C11.133 94.9043 13.6221 97.9331 12.4687 97.2411C11.6793 96.7674 11.1751 95.4227 10.7747 94.6812C8.15279 89.8258 4.21203 82.6516 8.61012 77.4774C9.29545 76.6711 8.6199 76.1277 8.08309 75.4445C7.1624 74.2727 4.90952 71.8612 6.50199 74.9363C9.94958 81.5937 14.4524 87.6902 18.699 93.853C19.0492 94.3613 22.2059 99.1174 22.5012 98.8222" stroke="#FFC022" stroke-width="3" stroke-linecap="round"/>
<path id="Vector 3193" d="M17.7577 76.1219C17.7577 81.8855 18.289 87.4168 20.4493 92.8175C22.8903 98.9199 16.4092 80.3068 14.5767 73.9949C14.4706 73.6294 13.9629 71.9497 14.8214 72.3009C19.1549 74.0737 23.1911 77.7242 27.0184 80.3758C29.0779 81.8027 31.2661 82.9545 33.1546 84.5732C33.3335 84.7266 33.6816 85.3125 33.6816 84.9309" stroke="#FFC022" stroke-width="3" stroke-linecap="round"/>
<path id="Vector 3194" d="M15.0474 85.2697C17.1976 84.8788 19.1313 83.1806 21.2212 82.484C22.2058 82.1558 23.3808 81.8162 23.8563 80.8652" stroke="#FFC022" stroke-width="3" stroke-linecap="round"/>
<path id="Vector 3195" d="M26.5669 51.7284C27.6786 55.0635 30.6661 58.2172 32.7407 60.9515C36.0443 65.3055 39.5801 69.4321 43.2814 73.4497C43.834 74.0496 45.8789 75.6462 45.8789 76.6495C45.8789 77.6358 44.682 75.0811 44.1096 74.2779C42.232 71.6433 39.1027 68.6239 39.1027 65.2054C39.1027 62.0186 40.8219 60.2334 41.945 57.4881C42.7105 55.6168 42.6644 53.3719 40.9285 52.086C40.5034 51.7712 35.2286 48.6738 34.9429 49.1309C34.1234 50.4421 39.6026 56.2948 40.2133 57.0552C43.7368 61.4423 47.4806 65.6286 51.3374 69.7228C52.5683 71.0295 53.5799 72.6053 54.8384 73.8638C55.0268 74.0521 55.3655 74.4097 55.3655 74.0897" stroke="#FFC022" stroke-width="3" stroke-linecap="round"/>
<path id="Vector 3196" d="M50.6222 54.7771C50.6222 58.1086 50.4601 61.4952 51.0363 64.7907C51.4231 67.0036 52.0566 69.132 52.335 71.3598C52.4664 72.4105 51.3184 68.9145 51.0928 68.4047C49.2745 64.2967 47.5399 60.1661 46.2177 55.8688C45.5633 53.7422 45.3907 51.6585 44.9378 49.5068C44.5188 47.5169 48.7585 50.0699 49.2293 50.2974C54.3427 52.7679 59.2399 55.7748 64.0615 58.7675C64.9587 59.3244 66.0142 59.811 66.8096 60.518C66.9802 60.6696 67.2237 61.2803 67.2237 60.8756" stroke="#FFC022" stroke-width="3" stroke-linecap="round"/>
<path id="Vector 3197" d="M45.54 64.9418C45.8836 63.0521 48.6386 61.13 49.9445 59.935C51.7221 58.3083 53.4124 56.8968 55.7042 56.1328" stroke="#FFC022" stroke-width="3" stroke-linecap="round"/>
<path id="Vector 3198" d="M63.8354 25.3013C68.3363 32.3027 75.3808 38.4729 81.8298 43.6533C82.2015 43.9518 85.998 47.4145 83.3357 45.8932C78.5284 43.1462 75.4394 35.7914 73.7173 30.7975C72.8254 28.2108 72.7139 25.8864 73.9244 23.419C74.5269 22.1908 74.8127 21.2684 74.6584 19.8803C74.5556 18.9547 72.7308 17.4879 71.7786 18.2616C69.9472 19.7496 91.0369 41.6609 93.9892 44.6132" stroke="#FFC022" stroke-width="3" stroke-linecap="round"/>
<path id="Vector 3199" d="M87.5518 24.624C87.5518 28.7951 88.5687 32.6579 89.9234 36.5952C90.545 38.4017 91.189 40.2195 91.9374 41.9784C92.3044 42.8409 92.2302 42.6132 92.5962 43.3713C92.7431 43.6756 92.7338 44.5514 92.9727 44.3124C93.1948 44.0903 92.4458 42.2381 92.408 42.129C91.3074 38.9522 90.2198 35.7868 89.2458 32.5671C87.8329 27.8967 86.6458 23.0851 84.5025 18.6761C84.3911 18.447 83.0831 16.419 84.0696 17.0573C88.393 19.8548 92.7038 22.8813 96.8125 25.9792C99.6833 28.1439 102.752 30.3373 105.301 32.8871C105.81 33.3953 106.186 33.6134 106.186 32.7554" stroke="#FFC022" stroke-width="3" stroke-linecap="round"/>
<path id="Vector 3200" d="M86.5356 32.7548C87.2584 30.8273 89.3691 28.706 91.0719 27.5409C91.4879 27.2563 92.1062 27.0346 92.2954 26.6562" stroke="#FFC022" stroke-width="3" stroke-linecap="round"/>
<path id="Vector 3202" d="M117.591 28.0997C117.446 27.5952 117.442 27.2952 117.442 26.7665C117.442 24.4399 121.335 24.8324 121.335 26.5556C121.335 27.0929 121.533 28.319 121.213 28.741C120.809 29.2736 119.799 29.0749 119.273 29.0363C118.805 29.0019 117.778 28.7559 117.591 28.0997Z" fill="#FFC022" stroke="#FFC022" stroke-width="3" stroke-linecap="round"/>
<path id="Vector 3216" d="M114.513 21.6191C114.013 19.5881 108.698 16.6224 106.744 15.2608C104.207 13.4922 102.071 11.6539 99.5738 9.86229C96.1635 7.41559 93.7353 2.94542 89.4155 1.64453" stroke="#FFC022" stroke-width="3" stroke-linecap="round"/>
</g>
</g>
</svg>
